<svg width="100" height="100" viewBox="0 0 100 100" fill="none" xmlns="http://www.w3.org/2000/svg">
<path d="M79.9201 44.7395C79.8501 42.1695 79.5701 39.6195 78.9301 37.1295C77.6201 31.9395 74.8801 27.5495 71.1301 23.7195C69.4701 22.0295 67.5501 20.6695 65.5201 19.4995C60.6001 16.6595 55.2201 15.2395 49.5501 14.8995C45.0201 14.6195 40.5801 15.2795 36.2601 16.5795C31.7801 17.9295 27.9301 20.4095 24.5301 23.5195C21.8001 26.0195 19.7701 29.0295 18.2501 32.3795C16.6401 35.9395 15.7301 39.6395 15.5801 43.5295C15.5101 45.2895 15.5001 47.0495 15.4001 48.7995C15.1901 52.7195 15.2801 56.6295 15.9901 60.5095C16.7901 64.9095 18.4001 68.9795 21.1201 72.5895C23.4601 75.6995 26.4001 78.1295 29.7201 80.1695C34.6301 83.1795 40.0201 84.6195 45.7601 84.9395C48.7301 85.0995 51.6701 84.8495 54.5701 84.3495C58.3501 83.6995 61.9301 82.4395 65.2701 80.5295C69.3101 78.2195 72.6201 75.1595 75.2201 71.3595C77.9701 67.3395 79.2601 62.8195 79.6801 58.0595C79.9201 55.3695 79.7901 52.8295 79.9101 50.1295C79.9101 50.0795 79.9101 50.0595 79.9101 50.0495C79.9101 50.0495 79.9101 50.0295 79.9101 49.9595C79.9101 48.2195 79.9501 46.4795 79.9101 44.7495L79.9201 44.7395ZM59.1201 70.9095C56.7301 71.9795 54.2801 72.0995 52.0301 70.4495C51.4801 70.0495 50.9501 69.5995 50.4901 69.0995C50.0201 68.5795 49.4801 68.4395 48.7901 68.3995C45.1101 68.1795 41.4001 68.0095 38.0101 66.3695C35.5201 65.1595 33.1101 63.8295 31.3901 61.5495C30.2301 60.0195 29.7501 58.2995 29.5201 56.4795C29.2201 54.0695 29.3701 51.6695 29.6201 49.2595C30.0201 45.4795 30.3401 41.6795 30.7601 37.8995C30.9901 35.8895 31.7001 34.0595 33.3201 32.6895C33.7601 32.3195 33.9101 31.8595 33.8501 31.3095C33.7001 30.0895 34.2901 28.9495 35.3601 28.3795C36.7301 27.6495 37.8801 27.6995 38.9501 28.5395C39.2001 28.7395 39.4501 28.9595 39.7301 29.0795C39.9601 29.1795 40.2901 29.2195 40.5001 29.1395C42.8001 28.2095 45.2101 28.0495 47.6401 28.1495C48.7601 28.1995 49.6301 28.0495 50.2901 27.0295C50.5201 26.6795 51.1801 26.4695 51.6701 26.4195C53.3801 26.2495 54.7901 27.6095 54.7201 29.2895C54.7001 29.8295 54.8701 30.1995 55.3501 30.4495C57.3401 31.4995 58.2201 33.4095 59.1401 35.2795C59.2101 35.4295 59.0901 35.7495 58.9501 35.8995C57.6401 37.3795 56.3101 38.8395 54.9701 40.2895C54.8101 40.4595 54.4601 40.6595 54.3101 40.5995C53.9601 40.4595 53.6701 40.1695 53.3701 39.9195C53.2001 39.7795 53.0701 39.5995 52.9101 39.4395C52.7501 39.6195 52.5001 39.7795 52.4401 39.9995C52.2001 40.8695 51.3801 41.5395 50.4901 41.5895C50.2901 41.5995 50.1101 41.8095 49.9201 41.9195C50.0901 42.1195 50.2401 42.4595 50.4501 42.4995C51.3001 42.6695 51.9401 42.1995 52.5201 41.6695C53.0901 41.1495 53.1601 41.1395 53.7701 41.6695C52.8701 42.9895 51.9901 44.3295 51.0601 45.6295C50.9601 45.7695 50.5401 45.8195 50.3201 45.7395C48.9801 45.2795 47.6001 45.3695 46.2301 45.4195C45.9501 45.4295 45.6001 45.7395 45.4501 45.9995C45.2101 46.4295 45.4301 46.7495 45.9501 46.7595C46.6601 46.7695 47.3701 46.7795 48.0901 46.7595C49.4401 46.7095 50.6601 47.1395 51.8001 47.7995C53.8301 48.9695 54.3501 51.6695 52.5901 53.6895C51.0701 55.4295 49.1501 56.2695 46.8801 56.3595C45.4401 56.4195 43.9901 56.3895 42.5601 56.2695C41.1001 56.1395 39.8901 55.3895 38.8101 54.4295C38.5201 54.1695 38.2301 53.9195 37.9201 53.6795C37.5801 53.4195 37.2001 53.3095 36.8701 53.6495C36.5401 53.9895 36.6601 54.3795 36.9601 54.6795C38.3001 56.0295 39.7201 57.2695 41.7101 57.5895C42.5401 57.7195 43.3801 57.8095 44.2601 57.9195C44.3601 60.8795 45.6001 62.2795 48.5301 63.0495C51.1301 63.7295 53.6001 63.5195 55.8601 62.1295C56.8501 61.5195 57.6301 60.5895 58.5001 59.7895C58.7801 59.5295 58.9901 59.2395 59.4901 59.4495C59.6601 59.5195 60.1001 59.2695 60.2401 59.0595C60.8401 58.1795 61.6501 57.5895 62.6301 57.2195C64.7501 56.4095 66.1901 57.8295 66.6001 59.4895C67.0001 61.0995 66.6301 62.6395 65.9301 64.0695C64.4501 67.0995 62.2601 69.5295 59.1101 70.9395L59.1201 70.9095ZM40.5201 71.3695C39.4501 72.0195 38.3001 72.4195 37.4701 72.3695C34.9901 72.3295 33.1401 71.7495 31.5001 70.5895C29.4501 69.1295 27.6701 67.4595 26.8201 65.0095C26.2401 63.3395 27.2101 61.7695 28.5401 61.2095C28.9501 61.0395 29.2001 61.0695 29.4601 61.4595C31.9801 65.3295 35.8101 67.3595 40.1001 68.7195C40.7701 68.9295 41.2601 69.2495 41.3701 69.9595C41.4801 70.6495 41.0501 71.0595 40.5301 71.3795L40.5201 71.3695ZM67.6901 41.6595C67.4401 42.7295 67.0501 43.7695 66.7301 44.8195C66.5701 45.3495 66.3001 45.4695 65.7701 45.1895C64.4601 44.4795 63.0701 44.3495 61.6501 44.8195C59.5301 45.5095 58.4901 47.4395 58.8101 49.6095C59.0501 51.2795 59.6001 52.7395 60.8001 53.9495C61.1701 54.3195 60.9101 54.6395 60.7001 54.8995C59.6001 56.2395 58.5101 57.5995 57.3301 58.8695C56.6301 59.6295 55.8301 60.3395 54.9701 60.9195C52.6401 62.4795 48.5601 62.1595 46.6301 60.3495C45.9001 59.6595 45.6501 59.0095 45.7001 57.9395C46.9201 57.7695 48.1501 57.6595 49.3501 57.4095C52.5101 56.7395 54.7501 54.3995 55.2401 51.2895C55.4401 50.0295 54.8801 48.9495 54.1601 47.9695C53.7501 47.4095 53.2201 46.9195 52.6901 46.4595C52.3901 46.1995 52.3401 46.0195 52.5901 45.7395C52.8201 45.4895 52.9601 45.0395 53.4401 45.3595C54.5101 46.0795 55.6001 46.7995 56.6401 47.5595C57.0201 47.8395 57.3301 47.9395 57.6501 47.5795C57.9801 47.1995 57.8201 46.8695 57.4401 46.6195C56.2701 45.8395 55.0901 45.0695 53.8301 44.2295C54.2801 43.6395 54.7501 42.9895 55.2901 42.3895C55.4001 42.2695 55.8301 42.2795 56.0201 42.3895C56.9701 42.9395 57.8901 43.5195 58.8001 44.1295C59.1001 44.3295 59.3401 44.5295 59.6001 44.1695C59.8501 43.8195 59.8701 43.4395 59.4601 43.1695C58.6001 42.6095 57.7301 42.0795 56.8601 41.5395C56.6701 41.4195 56.4701 41.3295 56.1701 41.1795C56.7701 40.5095 57.2801 39.8795 57.8601 39.3195C57.9901 39.1895 58.4601 39.1995 58.6101 39.3195C59.1101 39.7395 59.5501 40.2395 60.0001 40.7195C60.1601 40.8795 60.2601 41.1495 60.4401 41.2195C60.7201 41.3195 61.0501 41.2895 61.3601 41.3095C61.3401 41.0295 61.4201 40.6695 61.2801 40.4695C60.6901 39.6295 60.0401 38.8395 59.3301 37.9395C60.3401 36.8695 61.8901 35.9495 63.9001 36.0695C66.5201 36.2295 68.3601 38.9095 67.7101 41.6495L67.6901 41.6595ZM63.4901 52.7695C62.7201 53.2095 62.2901 53.1095 61.6401 52.5095C60.4001 51.3695 60.1201 49.8595 60.1901 48.3195C60.2501 46.9595 61.5601 46.0795 62.9601 46.0395C64.3001 45.9795 65.1701 46.3695 65.9801 46.9695C66.6401 47.4595 66.8301 48.0795 66.6001 48.8095C66.0601 50.4895 65.0801 51.8695 63.5001 52.7695H63.4901Z" fill="#FF9D27"/>
<path d="M44.2702 57.8994C44.3702 60.8594 45.6102 62.2594 48.5402 63.0294C51.1402 63.7094 53.6102 63.4994 55.8702 62.1094C56.8602 61.4994 57.6402 60.5694 58.5102 59.7694C58.7902 59.5094 59.0002 59.2194 59.5002 59.4294C59.6702 59.4994 60.1102 59.2494 60.2502 59.0394C60.8502 58.1594 61.6602 57.5694 62.6402 57.1994C64.7602 56.3894 66.2002 57.8094 66.6102 59.4694C67.0102 61.0794 66.6402 62.6194 65.9402 64.0494C64.4602 67.0794 62.2702 69.5094 59.1202 70.9194C56.7302 71.9894 54.2802 72.1094 52.0302 70.4594C51.4802 70.0594 50.9502 69.6094 50.4902 69.1094C50.0202 68.5894 49.4802 68.4494 48.7902 68.4094C45.1102 68.1894 41.4002 68.0194 38.0102 66.3794C35.5202 65.1694 33.1102 63.8394 31.3902 61.5594C30.2302 60.0294 29.7502 58.3094 29.5202 56.4894C29.2202 54.0794 29.3702 51.6794 29.6202 49.2694C30.0202 45.4894 30.3402 41.6894 30.7602 37.9094C30.9902 35.8994 31.7002 34.0694 33.3202 32.6994C33.7602 32.3294 33.9102 31.8694 33.8502 31.3194C33.7002 30.0994 34.2902 28.9594 35.3602 28.3894C36.7302 27.6594 37.8802 27.7094 38.9502 28.5494C39.2002 28.7494 39.4502 28.9694 39.7302 29.0894C39.9602 29.1894 40.2902 29.2294 40.5002 29.1494C42.8002 28.2194 45.2102 28.0594 47.6402 28.1594C48.7602 28.2094 49.6302 28.0594 50.2902 27.0394C50.5202 26.6894 51.1802 26.4794 51.6702 26.4294C53.3802 26.2594 54.7902 27.6194 54.7202 29.2994C54.7002 29.8394 54.8702 30.2094 55.3502 30.4594C57.3402 31.5094 58.2202 33.4194 59.1402 35.2894C59.2102 35.4394 59.0902 35.7594 58.9502 35.9094C57.6402 37.3894 56.3102 38.8494 54.9702 40.2994C54.8102 40.4694 54.4602 40.6694 54.3102 40.6094C53.9602 40.4694 53.6702 40.1794 53.3702 39.9294C53.2002 39.7894 53.0702 39.6094 52.9102 39.4494C52.7502 39.6294 52.5002 39.7894 52.4402 40.0094C52.2002 40.8794 51.3802 41.5494 50.4902 41.5994C50.2902 41.6094 50.1102 41.8194 49.9202 41.9294C50.0902 42.1294 50.2402 42.4694 50.4502 42.5094C51.3002 42.6794 51.9402 42.2094 52.5202 41.6794C53.0902 41.1594 53.1602 41.1494 53.7702 41.6794C52.8702 42.9994 51.9902 44.3394 51.0602 45.6394C50.9602 45.7794 50.5402 45.8294 50.3202 45.7494C48.9802 45.2894 47.6002 45.3794 46.2302 45.4294C45.9502 45.4394 45.6002 45.7494 45.4502 46.0094C45.2102 46.4394 45.4302 46.7594 45.9502 46.7694C46.6602 46.7794 47.3702 46.7894 48.0902 46.7694C49.4402 46.7194 50.6602 47.1494 51.8002 47.8094C53.8302 48.9794 54.3502 51.6794 52.5902 53.6994C51.0702 55.4394 49.1502 56.2794 46.8802 56.3694C45.4402 56.4294 43.9902 56.3994 42.5602 56.2794C41.1002 56.1494 39.8902 55.3994 38.8102 54.4394C38.5202 54.1794 38.2302 53.9294 37.9202 53.6894C37.5802 53.4294 37.2002 53.3194 36.8702 53.6594C36.5402 53.9994 36.6602 54.3894 36.9602 54.6894C38.3002 56.0394 39.7202 57.2794 41.7102 57.5994C42.5402 57.7294 43.3802 57.8194 44.2602 57.9294L44.2702 57.8994ZM36.9802 28.8894C36.5702 29.0794 36.0402 29.2294 35.6102 29.5294C35.1302 29.8694 35.3702 30.4094 35.5502 30.8094C35.6002 30.9194 36.1002 30.8894 36.3802 30.8394C36.8702 30.7494 37.3502 30.6194 37.8202 30.4494C38.0602 30.3594 38.4602 30.1094 38.4402 29.9894C38.3902 29.6994 38.1802 29.3894 37.9402 29.1894C37.7302 29.0194 37.4002 29.0094 36.9802 28.8794V28.8894ZM53.1202 36.5694C52.5502 36.7694 52.0902 36.8494 51.7202 37.0894C51.5202 37.2194 51.3202 37.6894 51.4102 37.8594C51.5402 38.1194 51.9202 38.4094 52.2102 38.4294C52.5902 38.4594 53.0402 38.2994 53.3602 38.0894C53.6102 37.9294 53.9202 37.5094 53.8602 37.2894C53.7902 37.0094 53.3802 36.8094 53.1202 36.5694ZM54.6802 34.7994C54.1602 34.7794 53.7402 35.1694 53.7602 35.6794C53.7802 36.1894 54.0202 36.5394 54.5902 36.5594C55.1602 36.5894 55.5802 36.2294 55.5802 35.7594C55.5802 35.3294 55.0902 34.8194 54.6802 34.7994ZM48.9702 37.1294C49.4902 37.1394 49.9302 36.7994 49.9102 36.3494C49.8902 35.8694 49.6402 35.5394 49.1102 35.5094C48.6202 35.4794 48.1802 35.8794 48.2302 36.3394C48.2702 36.7594 48.4202 37.1394 48.9802 37.1194L48.9702 37.1294ZM51.8302 27.7394C51.6102 27.9094 51.3902 28.0794 51.1802 28.2494C51.4002 28.3994 51.5902 28.6194 51.8302 28.6994C52.1502 28.8094 52.5002 28.8294 52.8402 28.8394C52.9702 28.8394 53.1802 28.7494 53.2202 28.6594C53.2602 28.5594 53.1602 28.3294 53.0602 28.2794C52.7102 28.0894 52.3302 27.9594 51.8302 27.7494V27.7394Z" fill="white"/>
<path d="M59.3203 37.9597C60.3303 36.8897 61.8803 35.9697 63.8903 36.0897C66.5103 36.2497 68.3502 38.9297 67.7002 41.6697C67.4502 42.7397 67.0602 43.7797 66.7402 44.8297C66.5802 45.3597 66.3103 45.4797 65.7803 45.1997C64.4703 44.4897 63.0803 44.3597 61.6603 44.8297C59.5403 45.5197 58.5003 47.4497 58.8203 49.6197C59.0603 51.2897 59.6103 52.7497 60.8103 53.9597C61.1803 54.3297 60.9203 54.6497 60.7103 54.9097C59.6103 56.2497 58.5203 57.6097 57.3403 58.8797C56.6403 59.6397 55.8403 60.3497 54.9803 60.9297C52.6503 62.4897 48.5703 62.1697 46.6403 60.3597C45.9103 59.6697 45.6603 59.0197 45.7103 57.9497C46.9303 57.7797 48.1603 57.6697 49.3603 57.4197C52.5203 56.7497 54.7603 54.4097 55.2503 51.2997C55.4503 50.0397 54.8903 48.9597 54.1702 47.9797C53.7603 47.4197 53.2303 46.9297 52.7003 46.4697C52.4003 46.2097 52.3503 46.0297 52.6003 45.7497C52.8303 45.4997 52.9703 45.0497 53.4503 45.3697C54.5203 46.0897 55.6103 46.8097 56.6503 47.5697C57.0303 47.8497 57.3403 47.9497 57.6603 47.5897C57.9903 47.2097 57.8303 46.8797 57.4503 46.6297C56.2803 45.8497 55.1003 45.0797 53.8403 44.2397C54.2903 43.6497 54.7603 42.9997 55.3003 42.3997C55.4103 42.2797 55.8403 42.2897 56.0303 42.3997C56.9803 42.9497 57.9003 43.5297 58.8103 44.1397C59.1103 44.3397 59.3503 44.5397 59.6103 44.1797C59.8603 43.8297 59.8803 43.4497 59.4703 43.1797C58.6103 42.6197 57.7403 42.0897 56.8703 41.5497C56.6803 41.4297 56.4803 41.3397 56.1803 41.1897C56.7803 40.5197 57.2903 39.8897 57.8703 39.3297C58.0003 39.1997 58.4703 39.2097 58.6203 39.3297C59.1203 39.7497 59.5603 40.2497 60.0103 40.7297C60.1702 40.8897 60.2703 41.1597 60.4503 41.2297C60.7303 41.3297 61.0603 41.2997 61.3703 41.3197C61.3503 41.0397 61.4303 40.6797 61.2903 40.4797C60.7003 39.6397 60.0503 38.8497 59.3403 37.9497L59.3203 37.9597Z" fill="white"/>
<path d="M37.47 72.3698C34.99 72.3298 33.14 71.7498 31.5 70.5898C29.45 69.1298 27.67 67.4598 26.82 65.0098C26.24 63.3398 27.21 61.7698 28.54 61.2098C28.95 61.0398 29.2 61.0698 29.46 61.4598C31.98 65.3298 35.81 67.3598 40.1 68.7198C40.77 68.9298 41.26 69.2498 41.37 69.9598C41.48 70.6498 41.05 71.0598 40.53 71.3798C39.46 72.0298 38.31 72.4298 37.48 72.3798L37.47 72.3698Z" fill="white"/>
<path d="M62.9501 46.049C64.2901 45.989 65.1601 46.379 65.9701 46.979C66.6301 47.469 66.8201 48.089 66.5901 48.819C66.0501 50.499 65.0701 51.879 63.4901 52.779C62.7201 53.219 62.2901 53.119 61.6401 52.519C60.4001 51.379 60.1201 49.869 60.1901 48.329C60.2501 46.969 61.5601 46.089 62.9601 46.049H62.9501Z" fill="white"/>
<path d="M36.3503 29.0294C36.7603 28.8494 37.2103 28.7994 37.6403 28.9294C37.7603 28.9694 37.8703 29.0094 37.9503 29.0794C38.1903 29.2794 38.4603 29.6794 38.5103 29.9894C38.5303 30.1094 38.1003 30.3394 37.8503 30.4294C37.3903 30.6094 36.8703 30.7294 36.3903 30.8294C36.1103 30.8894 35.6103 30.9194 35.5603 30.7994C35.3803 30.3694 35.1503 29.7994 35.6203 29.4294C35.8403 29.2594 36.1003 29.1294 36.3503 29.0194V29.0294Z" fill="#FF9D27"/>
<path d="M53.1201 36.5596C53.3901 36.7996 53.7901 36.9996 53.8601 37.2796C53.9101 37.4996 53.6101 37.9096 53.3601 38.0796C53.0301 38.2896 52.5901 38.4396 52.2101 38.4196C51.9201 38.3996 51.5501 38.1196 51.4101 37.8496C51.3201 37.6796 51.5201 37.2096 51.7201 37.0796C52.0801 36.8396 52.5501 36.7596 53.1201 36.5596Z" fill="#FF9D27"/>
<path d="M54.6802 34.8C55.0902 34.81 55.5702 35.33 55.5802 35.76C55.5802 36.24 55.1602 36.59 54.5902 36.56C54.0202 36.53 53.7802 36.19 53.7602 35.68C53.7402 35.17 54.1702 34.79 54.6802 34.8Z" fill="#FF9D27"/>
<path d="M48.9701 37.1294C48.4201 37.1494 48.2601 36.7694 48.2201 36.3394C48.1801 35.8694 48.6101 35.4794 49.1001 35.5094C49.6301 35.5394 49.8801 35.8694 49.9001 36.3494C49.9201 36.7994 49.4801 37.1394 48.9601 37.1294H48.9701Z" fill="#FF9D27"/>
<path d="M51.5302 27.7097C52.1602 27.2697 52.8502 27.6297 53.0602 27.8897C53.1302 27.9797 53.2502 28.5497 53.2102 28.6497C53.1702 28.7497 52.9602 28.8397 52.8302 28.8297C52.4902 28.8197 51.9802 28.7897 51.6602 28.6797C51.4202 28.5997 51.2102 28.4397 51.1602 28.2397C51.2702 28.0097 51.3002 27.8797 51.5202 27.7097H51.5302Z" fill="#FF9D27"/>
</svg>
