<svg width="24" height="24" viewBox="0 0 24 24" fill="none" xmlns="http://www.w3.org/2000/svg">
<path fill-rule="evenodd" clip-rule="evenodd" d="M7.465 0.066C8.638 0.012 9.012 0 12 0C14.988 0 15.362 0.013 16.534 0.066C17.706 0.119 18.506 0.306 19.206 0.577C19.939 0.854 20.604 1.287 21.154 1.847C21.714 2.396 22.146 3.06 22.422 3.794C22.694 4.494 22.88 5.294 22.934 6.464C22.988 7.639 23 8.013 23 11C23 13.987 22.987 14.362 22.934 15.535C22.881 16.705 22.694 17.505 22.422 18.205C22.1459 18.939 21.7132 19.6041 21.154 20.154C20.604 20.714 19.939 21.146 19.206 21.422C18.506 21.694 17.706 21.88 16.536 21.934C15.362 21.988 14.988 22 12 22C9.012 22 8.638 21.987 7.465 21.934C6.295 21.881 5.495 21.694 4.795 21.422C4.06096 21.1459 3.39588 20.7132 2.846 20.154C2.28658 19.6045 1.85354 18.9398 1.577 18.206C1.306 17.506 1.12 16.706 1.066 15.536C1.012 14.361 1 13.987 1 11C1 8.013 1.013 7.638 1.066 6.466C1.119 5.294 1.306 4.494 1.577 3.794C1.85384 3.06014 2.28722 2.39539 2.847 1.846C3.3962 1.2867 4.06059 0.853673 4.794 0.577C5.494 0.306 6.295 0.12 7.465 0.066ZM16.444 2.046C15.284 1.993 14.936 1.982 11.999 1.982C9.062 1.982 8.714 1.993 7.554 2.046C6.481 2.095 5.899 2.274 5.511 2.425C4.998 2.625 4.631 2.862 4.246 3.247C3.88073 3.60179 3.59981 4.0341 3.424 4.512C3.273 4.9 3.094 5.482 3.045 6.555C2.992 7.715 2.981 8.063 2.981 11C2.981 13.937 2.992 14.285 3.045 15.445C3.094 16.518 3.273 17.1 3.424 17.488C3.6 17.965 3.881 18.398 4.246 18.753C4.601 19.118 5.034 19.399 5.511 19.575C5.899 19.726 6.481 19.905 7.554 19.954C8.714 20.007 9.061 20.018 11.999 20.018C14.937 20.018 15.284 20.007 16.444 19.954C17.517 19.905 18.099 19.726 18.487 19.575C19 19.375 19.367 19.138 19.752 18.753C20.117 18.398 20.398 17.965 20.574 17.488C20.725 17.1 20.904 16.518 20.953 15.445C21.006 14.285 21.017 13.937 21.017 11C21.017 8.063 21.006 7.715 20.953 6.555C20.904 5.482 20.725 4.9 20.574 4.512C20.374 3.999 20.137 3.632 19.752 3.247C19.3972 2.88173 18.9649 2.60081 18.487 2.425C18.099 2.274 17.517 2.095 16.444 2.046ZM10.594 14.391C11.3787 14.7176 12.2524 14.7617 13.0659 14.5157C13.8795 14.2697 14.5824 13.7489 15.0546 13.0422C15.5268 12.3356 15.7391 11.4869 15.655 10.6411C15.571 9.79534 15.196 9.00497 14.594 8.405C14.2102 8.02148 13.7462 7.72781 13.2353 7.54515C12.7245 7.36248 12.1794 7.29536 11.6395 7.34862C11.0996 7.40187 10.5782 7.57418 10.1128 7.85313C9.64746 8.13208 9.24974 8.51074 8.9483 8.96185C8.64686 9.41296 8.44919 9.92529 8.36952 10.462C8.28984 10.9986 8.33015 11.5463 8.48754 12.0655C8.64493 12.5847 8.91548 13.0626 9.27972 13.4647C9.64396 13.8668 10.0928 14.1832 10.594 14.391ZM8.002 7.002C8.52702 6.47697 9.15032 6.0605 9.8363 5.77636C10.5223 5.49222 11.2575 5.34597 12 5.34597C12.7425 5.34597 13.4777 5.49222 14.1637 5.77636C14.8497 6.0605 15.473 6.47697 15.998 7.002C16.523 7.52702 16.9395 8.15032 17.2236 8.8363C17.5078 9.52227 17.654 10.2575 17.654 11C17.654 11.7425 17.5078 12.4777 17.2236 13.1637C16.9395 13.8497 16.523 14.473 15.998 14.998C14.9377 16.0583 13.4995 16.654 12 16.654C10.5005 16.654 9.06234 16.0583 8.002 14.998C6.94166 13.9377 6.34597 12.4995 6.34597 11C6.34597 9.50046 6.94166 8.06234 8.002 7.002ZM18.908 6.188C19.0381 6.06527 19.1423 5.91768 19.2143 5.75397C19.2863 5.59027 19.3248 5.41377 19.3274 5.23493C19.33 5.05609 19.2967 4.87855 19.2295 4.71281C19.1622 4.54707 19.0624 4.39651 18.936 4.27004C18.8095 4.14357 18.6589 4.04376 18.4932 3.97652C18.3275 3.90928 18.1499 3.87598 17.9711 3.87858C17.7922 3.88119 17.6157 3.91965 17.452 3.9917C17.2883 4.06374 17.1407 4.1679 17.018 4.298C16.7793 4.55103 16.6486 4.88712 16.6537 5.23493C16.6588 5.58274 16.7992 5.91488 17.0452 6.16084C17.2911 6.40681 17.6233 6.54723 17.9711 6.5523C18.3189 6.55737 18.655 6.42669 18.908 6.188Z" fill="white"/>
</svg>
