<svg width="100" height="100" viewBox="0 0 100 100" fill="none" xmlns="http://www.w3.org/2000/svg">
<path d="M79.9201 44.7395C79.8501 42.1695 79.5701 39.6195 78.9301 37.1295C77.6201 31.9395 74.8801 27.5495 71.1301 23.7195C69.4701 22.0295 67.5501 20.6695 65.5201 19.4995C60.6001 16.6595 55.2201 15.2395 49.5501 14.8995C45.0201 14.6195 40.5801 15.2795 36.2601 16.5795C31.7801 17.9295 27.9301 20.4095 24.5301 23.5195C21.8001 26.0195 19.7701 29.0295 18.2501 32.3795C16.6401 35.9395 15.7301 39.6395 15.5801 43.5295C15.5101 45.2895 15.5001 47.0495 15.4001 48.7995C15.1901 52.7195 15.2801 56.6295 15.9901 60.5095C16.7901 64.9095 18.4001 68.9795 21.1201 72.5895C23.4601 75.6995 26.4001 78.1295 29.7201 80.1695C34.6301 83.1795 40.0201 84.6195 45.7601 84.9395C48.7301 85.0995 51.6701 84.8495 54.5701 84.3495C58.3501 83.6995 61.9301 82.4395 65.2701 80.5295C69.3101 78.2195 72.6201 75.1595 75.2201 71.3595C77.9701 67.3395 79.2601 62.8195 79.6801 58.0595C79.9201 55.3695 79.7901 52.8295 79.9101 50.1295C79.9101 50.0795 79.9101 50.0595 79.9101 50.0495C79.9101 50.0495 79.9101 50.0295 79.9101 49.9595C79.9101 48.2195 79.9501 46.4795 79.9101 44.7495L79.9201 44.7395ZM59.1201 70.9095C56.7301 71.9795 54.2801 72.0995 52.0301 70.4495C51.4801 70.0495 50.9501 69.5995 50.4901 69.0995C50.0201 68.5795 49.4801 68.4395 48.7901 68.3995C45.1101 68.1795 41.4001 68.0095 38.0101 66.3695C35.5201 65.1595 33.1101 63.8295 31.3901 61.5495C30.2301 60.0195 29.7501 58.2995 29.5201 56.4795C29.2201 54.0695 29.3701 51.6695 29.6201 49.2595C30.0201 45.4795 30.3401 41.6795 30.7601 37.8995C30.9901 35.8895 31.7001 34.0595 33.3201 32.6895C33.7601 32.3195 33.9101 31.8595 33.8501 31.3095C33.7001 30.0895 34.2901 28.9495 35.3601 28.3795C36.7301 27.6495 37.8801 27.6995 38.9501 28.5395C39.2001 28.7395 39.4501 28.9595 39.7301 29.0795C39.9601 29.1795 40.2901 29.2195 40.5001 29.1395C42.8001 28.2095 45.2101 28.0495 47.6401 28.1495C48.7601 28.1995 49.6301 28.0495 50.2901 27.0295C50.5201 26.6795 51.1801 26.4695 51.6701 26.4195C53.3801 26.2495 54.7901 27.6095 54.7201 29.2895C54.7001 29.8295 54.8701 30.1995 55.3501 30.4495C57.3401 31.4995 58.2201 33.4095 59.1401 35.2795C59.2101 35.4295 59.0901 35.7495 58.9501 35.8995C57.6401 37.3795 56.3101 38.8395 54.9701 40.2895C54.8101 40.4595 54.4601 40.6595 54.3101 40.5995C53.9601 40.4595 53.6701 40.1695 53.3701 39.9195C53.2001 39.7795 53.0701 39.5995 52.9101 39.4395C52.7501 39.6195 52.5001 39.7795 52.4401 39.9995C52.2001 40.8695 51.3801 41.5395 50.4901 41.5895C50.2901 41.5995 50.1101 41.8095 49.9201 41.9195C50.0901 42.1195 50.2401 42.4595 50.4501 42.4995C51.3001 42.6695 51.9401 42.1995 52.5201 41.6695C53.0901 41.1495 53.1601 41.1395 53.7701 41.6695C52.8701 42.9895 51.9901 44.3295 51.0601 45.6295C50.9601 45.7695 50.5401 45.8195 50.3201 45.7395C48.9801 45.2795 47.6001 45.3695 46.2301 45.4195C45.9501 45.4295 45.6001 45.7395 45.4501 45.9995C45.2101 46.4295 45.4301 46.7495 45.9501 46.7595C46.6601 46.7695 47.3701 46.7795 48.0901 46.7595C49.4401 46.7095 50.6601 47.1395 51.8001 47.7995C53.8301 48.9695 54.3501 51.6695 52.5901 53.6895C51.0701 55.4295 49.1501 56.2695 46.8801 56.3595C45.4401 56.4195 43.9901 56.3895 42.5601 56.2695C41.1001 56.1395 39.8901 55.3895 38.8101 54.4295C38.5201 54.1695 38.2301 53.9195 37.9201 53.6795C37.5801 53.4195 37.2001 53.3095 36.8701 53.6495C36.5401 53.9895 36.6601 54.3795 36.9601 54.6795C38.3001 56.0295 39.7201 57.2695 41.7101 57.5895C42.5401 57.7195 43.3801 57.8095 44.2601 57.9195C44.3601 60.8795 45.6001 62.2795 48.5301 63.0495C51.1301 63.7295 53.6001 63.5195 55.8601 62.1295C56.8501 61.5195 57.6301 60.5895 58.5001 59.7895C58.7801 59.5295 58.9901 59.2395 59.4901 59.4495C59.6601 59.5195 60.1001 59.2695 60.2401 59.0595C60.8401 58.1795 61.6501 57.5895 62.6301 57.2195C64.7501 56.4095 66.1901 57.8295 66.6001 59.4895C67.0001 61.0995 66.6301 62.6395 65.9301 64.0695C64.4501 67.0995 62.2601 69.5295 59.1101 70.9395L59.1201 70.9095ZM40.5201 71.3695C39.4501 72.0195 38.3001 72.4195 37.4701 72.3695C34.9901 72.3295 33.1401 71.7495 31.5001 70.5895C29.4501 69.1295 27.6701 67.4595 26.8201 65.0095C26.2401 63.3395 27.2101 61.7695 28.5401 61.2095C28.9501 61.0395 29.2001 61.0695 29.4601 61.4595C31.9801 65.3295 35.8101 67.3595 40.1001 68.7195C40.7701 68.9295 41.2601 69.2495 41.3701 69.9595C41.4801 70.6495 41.0501 71.0595 40.5301 71.3795L40.5201 71.3695ZM67.6901 41.6595C67.4401 42.7295 67.0501 43.7695 66.7301 44.8195C66.5701 45.3495 66.3001 45.4695 65.7701 45.1895C64.4601 44.4795 63.0701 44.3495 61.6501 44.8195C59.5301 45.5095 58.4901 47.4395 58.8101 49.6095C59.0501 51.2795 59.6001 52.7395 60.8001 53.9495C61.1701 54.3195 60.9101 54.6395 60.7001 54.8995C59.6001 56.2395 58.5101 57.5995 57.3301 58.8695C56.6301 59.6295 55.8301 60.3395 54.9701 60.9195C52.6401 62.4795 48.5601 62.1595 46.6301 60.3495C45.9001 59.6595 45.6501 59.0095 45.7001 57.9395C46.9201 57.7695 48.1501 57.6595 49.3501 57.4095C52.5101 56.7395 54.7501 54.3995 55.2401 51.2895C55.4401 50.0295 54.8801 48.9495 54.1601 47.9695C53.7501 47.4095 53.2201 46.9195 52.6901 46.4595C52.3901 46.1995 52.3401 46.0195 52.5901 45.7395C52.8201 45.4895 52.9601 45.0395 53.4401 45.3595C54.5101 46.0795 55.6001 46.7995 56.6401 47.5595C57.0201 47.8395 57.3301 47.9395 57.6501 47.5795C57.9801 47.1995 57.8201 46.8695 57.4401 46.6195C56.2701 45.8395 55.0901 45.0695 53.8301 44.2295C54.2801 43.6395 54.7501 42.9895 55.2901 42.3895C55.4001 42.2695 55.8301 42.2795 56.0201 42.3895C56.9701 42.9395 57.8901 43.5195 58.8001 44.1295C59.1001 44.3295 59.3401 44.5295 59.6001 44.1695C59.8501 43.8195 59.8701 43.4395 59.4601 43.1695C58.6001 42.6095 57.7301 42.0795 56.8601 41.5395C56.6701 41.4195 56.4701 41.3295 56.1701 41.1795C56.7701 40.5095 57.2801 39.8795 57.8601 39.3195C57.9901 39.1895 58.4601 39.1995 58.6101 39.3195C59.1101 39.7395 59.5501 40.2395 60.0001 40.7195C60.1601 40.8795 60.2601 41.1495 60.4401 41.2195C60.7201 41.3195 61.0501 41.2895 61.3601 41.3095C61.3401 41.0295 61.4201 40.6695 61.2801 40.4695C60.6901 39.6295 60.0401 38.8395 59.3301 37.9395C60.3401 36.8695 61.8901 35.9495 63.9001 36.0695C66.5201 36.2295 68.3601 38.9095 67.7101 41.6495L67.6901 41.6595ZM63.4901 52.7695C62.7201 53.2095 62.2901 53.1095 61.6401 52.5095C60.4001 51.3695 60.1201 49.8595 60.1901 48.3195C60.2501 46.9595 61.5601 46.0795 62.9601 46.0395C64.3001 45.9795 65.1701 46.3695 65.9801 46.9695C66.6401 47.4595 66.8301 48.0795 66.6001 48.8095C66.0601 50.4895 65.0801 51.8695 63.5001 52.7695H63.4901Z" fill="#FF9D27"/>
<path d="M44.27 57.8994C44.37 60.8594 45.61 62.2594 48.54 63.0294C51.14 63.7094 53.61 63.4994 55.87 62.1094C56.86 61.4994 57.64 60.5694 58.51 59.7694C58.79 59.5094 59 59.2194 59.5 59.4294C59.67 59.4994 60.11 59.2494 60.25 59.0394C60.85 58.1594 61.66 57.5694 62.64 57.1994C64.76 56.3894 66.2 57.8094 66.61 59.4694C67.01 61.0794 66.64 62.6194 65.94 64.0494C64.46 67.0794 62.27 69.5094 59.12 70.9194C56.73 71.9894 54.28 72.1094 52.03 70.4594C51.48 70.0594 50.95 69.6094 50.49 69.1094C50.02 68.5894 49.48 68.4494 48.79 68.4094C45.11 68.1894 41.4 68.0194 38.01 66.3794C35.52 65.1694 33.11 63.8394 31.39 61.5594C30.23 60.0294 29.75 58.3094 29.52 56.4894C29.22 54.0794 29.37 51.6794 29.62 49.2694C30.02 45.4894 30.34 41.6894 30.76 37.9094C30.99 35.8994 31.7 34.0694 33.32 32.6994C33.76 32.3294 33.91 31.8694 33.85 31.3194C33.7 30.0994 34.29 28.9594 35.36 28.3894C36.73 27.6594 37.88 27.7094 38.95 28.5494C39.2 28.7494 39.45 28.9694 39.73 29.0894C39.96 29.1894 40.29 29.2294 40.5 29.1494C42.8 28.2194 45.21 28.0594 47.64 28.1594C48.76 28.2094 49.63 28.0594 50.29 27.0394C50.52 26.6894 51.18 26.4794 51.67 26.4294C53.38 26.2594 54.79 27.6194 54.72 29.2994C54.7 29.8394 54.87 30.2094 55.35 30.4594C57.34 31.5094 58.22 33.4194 59.14 35.2894C59.21 35.4394 59.09 35.7594 58.95 35.9094C57.64 37.3894 56.31 38.8494 54.97 40.2994C54.81 40.4694 54.46 40.6694 54.31 40.6094C53.96 40.4694 53.67 40.1794 53.37 39.9294C53.2 39.7894 53.07 39.6094 52.91 39.4494C52.75 39.6294 52.5 39.7894 52.44 40.0094C52.2 40.8794 51.38 41.5494 50.49 41.5994C50.29 41.6094 50.11 41.8194 49.92 41.9294C50.09 42.1294 50.24 42.4694 50.45 42.5094C51.3 42.6794 51.94 42.2094 52.52 41.6794C53.09 41.1594 53.16 41.1494 53.77 41.6794C52.87 42.9994 51.99 44.3394 51.06 45.6394C50.96 45.7794 50.54 45.8294 50.32 45.7494C48.98 45.2894 47.6 45.3794 46.23 45.4294C45.95 45.4394 45.6 45.7494 45.45 46.0094C45.21 46.4394 45.43 46.7594 45.95 46.7694C46.66 46.7794 47.37 46.7894 48.09 46.7694C49.44 46.7194 50.66 47.1494 51.8 47.8094C53.83 48.9794 54.35 51.6794 52.59 53.6994C51.07 55.4394 49.15 56.2794 46.88 56.3694C45.44 56.4294 43.99 56.3994 42.56 56.2794C41.1 56.1494 39.89 55.3994 38.81 54.4394C38.52 54.1794 38.23 53.9294 37.92 53.6894C37.58 53.4294 37.2 53.3194 36.87 53.6594C36.54 53.9994 36.66 54.3894 36.96 54.6894C38.3 56.0394 39.72 57.2794 41.71 57.5994C42.54 57.7294 43.38 57.8194 44.26 57.9294L44.27 57.8994ZM36.98 28.8894C36.57 29.0794 36.04 29.2294 35.61 29.5294C35.13 29.8694 35.37 30.4094 35.55 30.8094C35.6 30.9194 36.1 30.8894 36.38 30.8394C36.87 30.7494 37.35 30.6194 37.82 30.4494C38.06 30.3594 38.46 30.1094 38.44 29.9894C38.39 29.6994 38.18 29.3894 37.94 29.1894C37.73 29.0194 37.4 29.0094 36.98 28.8794V28.8894ZM53.12 36.5694C52.55 36.7694 52.09 36.8494 51.72 37.0894C51.52 37.2194 51.32 37.6894 51.41 37.8594C51.54 38.1194 51.92 38.4094 52.21 38.4294C52.59 38.4594 53.04 38.2994 53.36 38.0894C53.61 37.9294 53.92 37.5094 53.86 37.2894C53.79 37.0094 53.38 36.8094 53.12 36.5694ZM54.68 34.7994C54.16 34.7794 53.74 35.1694 53.76 35.6794C53.78 36.1894 54.02 36.5394 54.59 36.5594C55.16 36.5894 55.58 36.2294 55.58 35.7594C55.58 35.3294 55.09 34.8194 54.68 34.7994ZM48.97 37.1294C49.49 37.1394 49.93 36.7994 49.91 36.3494C49.89 35.8694 49.64 35.5394 49.11 35.5094C48.62 35.4794 48.18 35.8794 48.23 36.3394C48.27 36.7594 48.42 37.1394 48.98 37.1194L48.97 37.1294ZM51.83 27.7394C51.61 27.9094 51.39 28.0794 51.18 28.2494C51.4 28.3994 51.59 28.6194 51.83 28.6994C52.15 28.8094 52.5 28.8294 52.84 28.8394C52.97 28.8394 53.18 28.7494 53.22 28.6594C53.26 28.5594 53.16 28.3294 53.06 28.2794C52.71 28.0894 52.33 27.9594 51.83 27.7494V27.7394Z" fill="white"/>
<path d="M59.3203 37.9597C60.3303 36.8897 61.8803 35.9697 63.8903 36.0897C66.5103 36.2497 68.3502 38.9297 67.7002 41.6697C67.4502 42.7397 67.0602 43.7797 66.7402 44.8297C66.5802 45.3597 66.3103 45.4797 65.7803 45.1997C64.4703 44.4897 63.0803 44.3597 61.6603 44.8297C59.5403 45.5197 58.5003 47.4497 58.8203 49.6197C59.0603 51.2897 59.6103 52.7497 60.8103 53.9597C61.1803 54.3297 60.9203 54.6497 60.7103 54.9097C59.6103 56.2497 58.5203 57.6097 57.3403 58.8797C56.6403 59.6397 55.8403 60.3497 54.9803 60.9297C52.6503 62.4897 48.5703 62.1697 46.6403 60.3597C45.9103 59.6697 45.6603 59.0197 45.7103 57.9497C46.9303 57.7797 48.1603 57.6697 49.3603 57.4197C52.5203 56.7497 54.7603 54.4097 55.2503 51.2997C55.4503 50.0397 54.8903 48.9597 54.1702 47.9797C53.7603 47.4197 53.2303 46.9297 52.7003 46.4697C52.4003 46.2097 52.3503 46.0297 52.6003 45.7497C52.8303 45.4997 52.9703 45.0497 53.4503 45.3697C54.5203 46.0897 55.6103 46.8097 56.6503 47.5697C57.0303 47.8497 57.3403 47.9497 57.6603 47.5897C57.9903 47.2097 57.8303 46.8797 57.4503 46.6297C56.2803 45.8497 55.1003 45.0797 53.8403 44.2397C54.2903 43.6497 54.7603 42.9997 55.3003 42.3997C55.4103 42.2797 55.8403 42.2897 56.0303 42.3997C56.9803 42.9497 57.9003 43.5297 58.8103 44.1397C59.1103 44.3397 59.3503 44.5397 59.6103 44.1797C59.8603 43.8297 59.8803 43.4497 59.4703 43.1797C58.6103 42.6197 57.7403 42.0897 56.8703 41.5497C56.6803 41.4297 56.4803 41.3397 56.1803 41.1897C56.7803 40.5197 57.2903 39.8897 57.8703 39.3297C58.0003 39.1997 58.4703 39.2097 58.6203 39.3297C59.1203 39.7497 59.5603 40.2497 60.0103 40.7297C60.1702 40.8897 60.2703 41.1597 60.4503 41.2297C60.7303 41.3297 61.0603 41.2997 61.3703 41.3197C61.3503 41.0397 61.4303 40.6797 61.2903 40.4797C60.7003 39.6397 60.0503 38.8497 59.3403 37.9497L59.3203 37.9597Z" fill="white"/>
<path d="M37.47 72.3698C34.99 72.3298 33.14 71.7498 31.5 70.5898C29.45 69.1298 27.67 67.4598 26.82 65.0098C26.24 63.3398 27.21 61.7698 28.54 61.2098C28.95 61.0398 29.2 61.0698 29.46 61.4598C31.98 65.3298 35.81 67.3598 40.1 68.7198C40.77 68.9298 41.26 69.2498 41.37 69.9598C41.48 70.6498 41.05 71.0598 40.53 71.3798C39.46 72.0298 38.31 72.4298 37.48 72.3798L37.47 72.3698Z" fill="white"/>
<path d="M62.9496 46.049C64.2896 45.989 65.1596 46.379 65.9696 46.979C66.6296 47.469 66.8196 48.089 66.5896 48.819C66.0496 50.499 65.0696 51.879 63.4896 52.779C62.7196 53.219 62.2896 53.119 61.6396 52.519C60.3996 51.379 60.1196 49.869 60.1896 48.329C60.2496 46.969 61.5596 46.089 62.9596 46.049H62.9496Z" fill="white"/>
<path d="M36.3505 29.0294C36.7605 28.8494 37.2105 28.7994 37.6405 28.9294C37.7605 28.9694 37.8705 29.0094 37.9505 29.0794C38.1905 29.2794 38.4605 29.6794 38.5105 29.9894C38.5305 30.1094 38.1005 30.3394 37.8505 30.4294C37.3905 30.6094 36.8705 30.7294 36.3905 30.8294C36.1105 30.8894 35.6105 30.9194 35.5605 30.7994C35.3805 30.3694 35.1505 29.7994 35.6205 29.4294C35.8405 29.2594 36.1005 29.1294 36.3505 29.0194V29.0294Z" fill="#FF9D27"/>
<path d="M53.1199 36.5596C53.3899 36.7996 53.7899 36.9996 53.8599 37.2796C53.9099 37.4996 53.6099 37.9096 53.3599 38.0796C53.0299 38.2896 52.5899 38.4396 52.2099 38.4196C51.9199 38.3996 51.5499 38.1196 51.4099 37.8496C51.3199 37.6796 51.5199 37.2096 51.7199 37.0796C52.0799 36.8396 52.5499 36.7596 53.1199 36.5596Z" fill="#FF9D27"/>
<path d="M54.6804 34.8C55.0904 34.81 55.5704 35.33 55.5804 35.76C55.5804 36.24 55.1604 36.59 54.5904 36.56C54.0204 36.53 53.7804 36.19 53.7604 35.68C53.7404 35.17 54.1704 34.79 54.6804 34.8Z" fill="#FF9D27"/>
<path d="M48.9704 37.1294C48.4204 37.1494 48.2604 36.7694 48.2204 36.3394C48.1804 35.8694 48.6104 35.4794 49.1004 35.5094C49.6304 35.5394 49.8804 35.8694 49.9004 36.3494C49.9204 36.7994 49.4804 37.1394 48.9604 37.1294H48.9704Z" fill="#FF9D27"/>
<path d="M51.5302 27.7097C52.1602 27.2697 52.8502 27.6297 53.0602 27.8897C53.1302 27.9797 53.2502 28.5497 53.2102 28.6497C53.1702 28.7497 52.9602 28.8397 52.8302 28.8297C52.4902 28.8197 51.9802 28.7897 51.6602 28.6797C51.4202 28.5997 51.2102 28.4397 51.1602 28.2397C51.2702 28.0097 51.3002 27.8797 51.5202 27.7097H51.5302Z" fill="#FF9D27"/>
</svg>
