<svg width="35" height="24" viewBox="0 0 35 24" fill="none" xmlns="http://www.w3.org/2000/svg">
<path d="M15.6035 15L20.7935 12L15.6035 9V15ZM27.1635 7.17C27.2935 7.64 27.3835 8.27 27.4435 9.07C27.5135 9.87 27.5435 10.56 27.5435 11.16L27.6035 12C27.6035 14.19 27.4435 15.8 27.1635 16.83C26.9135 17.73 26.3335 18.31 25.4335 18.56C24.9635 18.69 24.1035 18.78 22.7835 18.84C21.4835 18.91 20.2935 18.94 19.1935 18.94L17.6035 19C13.4135 19 10.8035 18.84 9.77352 18.56C8.87352 18.31 8.29352 17.73 8.04352 16.83C7.91352 16.36 7.82352 15.73 7.76352 14.93C7.69352 14.13 7.66352 13.44 7.66352 12.84L7.60352 12C7.60352 9.81 7.76352 8.2 8.04352 7.17C8.29352 6.27 8.87352 5.69 9.77352 5.44C10.2435 5.31 11.1035 5.22 12.4235 5.16C13.7235 5.09 14.9135 5.06 16.0135 5.06L17.6035 5C21.7935 5 24.4035 5.16 25.4335 5.44C26.3335 5.69 26.9135 6.27 27.1635 7.17Z" fill="white"/>
</svg>
