<svg width="23" height="21" viewBox="0 0 23 21" fill="none" xmlns="http://www.w3.org/2000/svg">
<path d="M15.3906 1.23535C16.5913 0.831187 17.8547 0.963996 18.917 1.50781C19.9793 2.05172 20.8257 2.99945 21.1982 4.21191C21.5673 5.41358 21.495 6.95826 20.5713 8.7373C19.6995 10.4134 18.0565 12.4563 16.2275 14.4443C14.4736 16.3508 12.6019 18.147 11.21 19.4336C9.81143 18.1478 7.93683 16.3511 6.18066 14.4443C4.34985 12.4565 2.70673 10.4134 1.83496 8.7373C0.911292 6.95825 0.838941 5.41359 1.20801 4.21191C1.58052 2.99945 2.42699 2.05172 3.48926 1.50781C4.55156 0.964007 5.81496 0.831173 7.01562 1.23535C8.20543 1.63593 9.41325 2.59169 10.3105 4.36816L11.2031 6.13574L12.0957 4.36816C12.993 2.59171 14.2008 1.63593 15.3906 1.23535Z" stroke="#B81B1B" stroke-width="2"/>
</svg>
