<svg width="21" height="21" viewBox="0 0 21 21" fill="none" xmlns="http://www.w3.org/2000/svg">
<path d="M9.34277 3.88574C9.76965 2.87131 11.2304 2.87122 11.6572 3.88574L13.1914 7.53418L13.3096 7.81445L13.6133 7.83887L17.5957 8.15332C18.7139 8.24214 19.147 9.60752 18.3115 10.3154L15.2773 12.8867L15.042 13.0859L15.1143 13.3857L16.042 17.2266C16.2955 18.2795 15.131 19.1441 14.168 18.5625L10.7588 16.5029L10.5 16.3467L10.2412 16.5029L6.83105 18.5615C5.8977 19.125 4.77683 18.3307 4.93848 17.3242L4.95801 17.2266L5.88574 13.3838L5.95801 13.084L5.72266 12.8848L2.68848 10.3145C1.85246 9.60634 2.28593 8.2406 3.40332 8.15234L7.38672 7.83691L7.69043 7.8125L7.80762 7.53223L9.34277 3.88574Z" fill="#FF9D27" stroke="#FF9D27"/>
</svg>
