<svg width="32" height="29" viewBox="0 0 32 29" fill="none" xmlns="http://www.w3.org/2000/svg">
<path d="M28.292 8.93341C28.037 8.61116 28.1124 8.14674 28.4484 7.906C28.7845 7.66526 29.0607 7.35628 29.252 6.98095C30.0072 5.48913 29.1245 3.54995 27.2779 2.64954C25.4314 1.74914 23.3241 2.22872 22.5689 3.72055C22.5689 3.72244 22.5669 3.72434 22.565 3.72624C22.3912 4.07123 21.9933 4.23994 21.6243 4.10346C20.0308 3.51014 18.304 3.17083 16.5 3.17083C14.8099 3.17083 13.1874 3.46654 11.6808 3.99162C11.3177 4.11862 10.914 3.9575 10.7556 3.6125C10.7421 3.58217 10.7286 3.55374 10.7131 3.5253C9.95791 2.03348 7.84867 1.5539 6.00406 2.4543C4.15945 3.3547 3.27481 5.29388 4.03004 6.78381C4.20967 7.13829 4.46656 7.434 4.77754 7.66905C5.08852 7.9041 5.1793 8.36283 4.92047 8.67371C3.08745 10.8821 2 13.5112 2 16.0892C2 22.394 8.49187 26.0013 16.5 26.0013C24.5081 26.0013 31 22.394 31 16.0892C31 13.6117 29.9956 11.0868 28.292 8.93341Z" fill="#231F20"/>
<path d="M6.42367 6.7551C6.00646 6.92381 5.54289 6.66791 5.47143 6.23192C5.34974 5.48696 5.71094 4.62826 6.46423 4.052C7.21753 3.47574 8.23351 3.32978 8.94818 3.67478C9.31904 3.85486 9.43686 4.31928 9.20701 4.65479C8.58699 5.5552 7.65792 6.25467 6.42174 6.7551H6.42367Z" fill="white"/>
<path d="M26.859 6.95078C27.2762 7.11948 27.7398 6.86358 27.8112 6.4276C27.9329 5.68263 27.5717 4.82393 26.8184 4.24767C26.0342 3.64677 25.0491 3.52546 24.3345 3.87045C23.9636 4.05053 23.8458 4.51495 24.0756 4.85047C24.6957 5.75087 25.6247 6.45034 26.8609 6.95078H26.859Z" fill="white"/>
<path d="M11.7694 15.5751C12.449 15.5751 12.9998 15.0345 12.9998 14.3676C12.9998 13.7008 12.449 13.1602 11.7694 13.1602C11.0899 13.1602 10.5391 13.7008 10.5391 14.3676C10.5391 15.0345 11.0899 15.5751 11.7694 15.5751Z" fill="white"/>
<path d="M20.3808 15.5751C21.0603 15.5751 21.6112 15.0345 21.6112 14.3676C21.6112 13.7008 21.0603 13.1602 20.3808 13.1602C19.7013 13.1602 19.1504 13.7008 19.1504 14.3676C19.1504 15.0345 19.7013 15.5751 20.3808 15.5751Z" fill="white"/>
<path d="M16.548 17.6635C17.4099 17.6635 18.1087 17.2994 18.1087 16.8503C18.1087 16.4012 17.4099 16.0371 16.548 16.0371C15.686 16.0371 14.9873 16.4012 14.9873 16.8503C14.9873 17.2994 15.686 17.6635 16.548 17.6635Z" fill="white"/>
<path d="M19.7678 20.2913C19.7175 20.1662 19.5727 20.1037 19.4452 20.1529C19.4355 20.1567 18.3829 20.5529 17.6122 20.1188C17.1776 19.8724 16.9014 19.3966 16.7932 18.7028C16.7913 18.6858 16.7874 18.6706 16.7816 18.6554C16.7758 18.6403 16.7681 18.627 16.7604 18.6137C16.7526 18.6005 16.743 18.5891 16.7314 18.5777C16.7217 18.5663 16.7101 18.5569 16.6986 18.5474C16.6986 18.5474 16.6986 18.5474 16.6966 18.5455C16.685 18.5379 16.6734 18.5303 16.6619 18.5246C16.658 18.5246 16.6561 18.5209 16.6522 18.5209C16.6425 18.5171 16.6329 18.5133 16.6213 18.5095C16.6155 18.5076 16.6078 18.5057 16.602 18.5038C16.5981 18.5038 16.5943 18.5019 16.5904 18.5C16.5865 18.5 16.5807 18.5 16.5769 18.5C16.5691 18.5 16.5614 18.5 16.5537 18.5C16.544 18.5 16.5363 18.5 16.5267 18.5C16.5228 18.5 16.5189 18.5 16.5151 18.5C16.5112 18.5 16.5073 18.5019 16.5035 18.5019C16.4957 18.5019 16.488 18.5057 16.4803 18.5076C16.4706 18.5095 16.461 18.5133 16.4533 18.5171C16.4494 18.519 16.4455 18.5209 16.4397 18.5227C16.4281 18.5284 16.4185 18.5341 16.4069 18.5417C16.4069 18.5417 16.403 18.5436 16.4011 18.5455C16.3895 18.555 16.3779 18.5644 16.3683 18.5739C16.3335 18.6099 16.3123 18.6573 16.3045 18.7066C16.1964 19.3985 15.9202 19.8724 15.4875 20.1188C14.7187 20.5529 13.6699 20.1605 13.6545 20.1529C13.527 20.1037 13.3821 20.1643 13.3319 20.2894C13.2817 20.4145 13.3435 20.5567 13.471 20.606C13.5038 20.6193 14.006 20.8107 14.6202 20.8107C14.9776 20.8107 15.3716 20.7463 15.7328 20.5415C16.0901 20.3406 16.3644 20.0335 16.5518 19.6279C16.7391 20.0354 17.0134 20.3406 17.3707 20.5415C17.7319 20.7444 18.126 20.8107 18.4833 20.8107C19.0956 20.8107 19.5997 20.6193 19.6326 20.606C19.76 20.5567 19.8218 20.4145 19.7716 20.2894L19.7678 20.2913Z" fill="white"/>
</svg>
