<svg width="32" height="29" viewBox="0 0 32 29" fill="none" xmlns="http://www.w3.org/2000/svg">
<path d="M5.64062 2.00781C7.58358 1.02578 9.96118 1.48633 10.8545 3.29297H10.8555C10.8774 3.33472 10.8947 3.37434 10.9102 3.41016L10.9307 3.44531C10.9839 3.52171 11.0819 3.55527 11.1758 3.52148H11.1768C12.6828 2.97784 14.3066 2.67093 15.999 2.6709C17.8063 2.6709 19.5349 3.02277 21.127 3.63672H21.126C21.2202 3.67255 21.3415 3.6386 21.4053 3.50781L21.4414 3.43359L21.4482 3.42578C22.3651 1.67099 24.7087 1.2324 26.6309 2.20312C28.5789 3.18715 29.6444 5.39044 28.7598 7.2002V7.20117C28.538 7.65193 28.2177 8.02221 27.833 8.30762C27.7259 8.38722 27.7095 8.53595 27.7812 8.62988C29.4799 10.8537 30.499 13.4827 30.499 16.0889C30.4989 19.4322 28.8265 22.056 26.1758 23.8242C23.5391 25.583 19.9346 26.5 15.999 26.5C12.0637 26.5 8.45987 25.5828 5.82324 23.8242C3.17241 22.056 1.50012 19.4323 1.5 16.0889C1.5 13.3771 2.60265 10.6401 4.42969 8.36035L4.45996 8.29883C4.46586 8.27526 4.46748 8.24854 4.46289 8.21875C4.45317 8.15583 4.41866 8.0982 4.37305 8.0625C4.01705 7.78376 3.71933 7.42925 3.51074 7.00293C2.62597 5.19447 3.69511 2.99138 5.64062 2.00781Z" fill="white" stroke="black"/>
<path d="M6.26889 6.75493C5.86609 6.92363 5.41853 6.66774 5.34953 6.23178C5.23205 5.48685 5.58077 4.6282 6.30805 4.05197C7.03534 3.47574 8.01624 3.32979 8.70622 3.67477C9.06427 3.85484 9.17803 4.31923 8.95611 4.65473C8.3575 5.55509 7.46052 6.25452 6.26703 6.75493H6.26889Z" fill="#231F20"/>
<path d="M25.9981 6.95061C26.4009 7.11931 26.8484 6.86341 26.9174 6.42745C27.0349 5.68253 26.6862 4.82387 25.9589 4.24764C25.2018 3.64677 24.2507 3.52546 23.5607 3.87044C23.2027 4.05051 23.0889 4.51491 23.3108 4.85041C23.9095 5.75076 24.8064 6.4502 25.9999 6.95061H25.9981Z" fill="#231F20"/>
<path d="M11.4301 15.574C12.0861 15.574 12.618 15.0334 12.618 14.3666C12.618 13.6998 12.0861 13.1592 11.4301 13.1592C10.774 13.1592 10.2422 13.6998 10.2422 14.3666C10.2422 15.0334 10.774 15.574 11.4301 15.574Z" fill="#231F20"/>
<path d="M19.7436 15.574C20.3996 15.574 20.9315 15.0334 20.9315 14.3666C20.9315 13.6998 20.3996 13.1592 19.7436 13.1592C19.0875 13.1592 18.5557 13.6998 18.5557 14.3666C18.5557 15.0334 19.0875 15.574 19.7436 15.574Z" fill="#231F20"/>
<path d="M16.0449 17.6625C16.877 17.6625 17.5516 17.2984 17.5516 16.8493C17.5516 16.4002 16.877 16.0361 16.0449 16.0361C15.2127 16.0361 14.5381 16.4002 14.5381 16.8493C14.5381 17.2984 15.2127 17.6625 16.0449 17.6625Z" fill="#231F20"/>
<path d="M19.1523 20.2903C19.1038 20.1652 18.964 20.1026 18.8409 20.1519C18.8316 20.1557 17.8152 20.5518 17.0712 20.1178C16.6516 19.8714 16.3849 19.3956 16.2805 18.7018C16.2786 18.6848 16.2749 18.6696 16.2693 18.6545C16.2637 18.6393 16.2562 18.626 16.2488 18.6128C16.2413 18.5995 16.232 18.5881 16.2208 18.5767C16.2115 18.5654 16.2003 18.5559 16.1891 18.5464C16.1891 18.5464 16.1891 18.5464 16.1873 18.5445C16.1761 18.5369 16.1649 18.5294 16.1537 18.5237C16.15 18.5237 16.1481 18.5199 16.1444 18.5199C16.135 18.5161 16.1257 18.5123 16.1145 18.5085C16.1089 18.5066 16.1015 18.5047 16.0959 18.5028C16.0921 18.5028 16.0884 18.5009 16.0847 18.499C16.081 18.499 16.0754 18.499 16.0716 18.499C16.0642 18.499 16.0567 18.499 16.0493 18.499C16.0399 18.499 16.0325 18.499 16.0231 18.499C16.0194 18.499 16.0157 18.499 16.012 18.499C16.0082 18.499 16.0045 18.5009 16.0008 18.5009C15.9933 18.5009 15.9858 18.5047 15.9784 18.5066C15.9691 18.5085 15.9597 18.5123 15.9523 18.5161C15.9486 18.518 15.9448 18.5199 15.9392 18.5218C15.928 18.5275 15.9187 18.5331 15.9075 18.5407C15.9075 18.5407 15.9038 18.5426 15.9019 18.5445C15.8907 18.554 15.8796 18.5635 15.8702 18.5729C15.8367 18.609 15.8161 18.6563 15.8087 18.7056C15.7043 19.3975 15.4376 19.8714 15.0199 20.1178C14.2777 20.5518 13.2651 20.1595 13.2501 20.1519C13.1271 20.1026 12.9872 20.1633 12.9387 20.2884C12.8902 20.4135 12.9499 20.5556 13.073 20.6049C13.1047 20.6182 13.5895 20.8096 14.1826 20.8096C14.5276 20.8096 14.908 20.7452 15.2567 20.5405C15.6017 20.3395 15.8665 20.0325 16.0474 19.6268C16.2283 20.0344 16.4931 20.3395 16.8381 20.5405C17.1868 20.7433 17.5672 20.8096 17.9122 20.8096C18.5034 20.8096 18.9901 20.6182 19.0218 20.6049C19.1449 20.5556 19.2045 20.4135 19.1561 20.2884L19.1523 20.2903Z" fill="#231F20"/>
</svg>
