<svg width="25" height="24" viewBox="0 0 25 24" fill="none" xmlns="http://www.w3.org/2000/svg">
<path d="M10.3965 15L15.5865 12L10.3965 9V15ZM21.9565 7.17C22.0865 7.64 22.1765 8.27 22.2365 9.07C22.3065 9.87 22.3365 10.56 22.3365 11.16L22.3965 12C22.3965 14.19 22.2365 15.8 21.9565 16.83C21.7065 17.73 21.1265 18.31 20.2265 18.56C19.7565 18.69 18.8965 18.78 17.5765 18.84C16.2765 18.91 15.0865 18.94 13.9865 18.94L12.3965 19C8.20648 19 5.59648 18.84 4.56648 18.56C3.66648 18.31 3.08648 17.73 2.83648 16.83C2.70648 16.36 2.61648 15.73 2.55648 14.93C2.48648 14.13 2.45648 13.44 2.45648 12.84L2.39648 12C2.39648 9.81 2.55648 8.2 2.83648 7.17C3.08648 6.27 3.66648 5.69 4.56648 5.44C5.03648 5.31 5.89648 5.22 7.21648 5.16C8.51648 5.09 9.70648 5.06 10.8065 5.06L12.3965 5C16.5865 5 19.1965 5.16 20.2265 5.44C21.1265 5.69 21.7065 6.27 21.9565 7.17Z" fill="white"/>
</svg>
